<svg width="109" height="39" viewBox="0 0 109 39" fill="none" xmlns="http://www.w3.org/2000/svg">
<rect y="-5" width="40" height="40" fill="#F7DF1E"/>
<path d="M24.8495 19.112C24.8495 19.528 24.7935 19.944 24.6815 20.36C24.5855 20.776 24.4175 21.16 24.1775 21.512C23.9375 21.848 23.6255 22.152 23.2415 22.424C22.8575 22.68 22.3935 22.872 21.8495 23V23.144C22.3295 23.224 22.7855 23.36 23.2175 23.552C23.6495 23.744 24.0255 24.008 24.3455 24.344C24.6655 24.68 24.9135 25.088 25.0895 25.568C25.2815 26.048 25.3775 26.616 25.3775 27.272C25.3775 28.136 25.1935 28.888 24.8255 29.528C24.4575 30.152 23.9615 30.664 23.3375 31.064C22.7295 31.464 22.0335 31.76 21.2495 31.952C20.4655 32.144 19.6575 32.24 18.8255 32.24C18.5535 32.24 18.2015 32.24 17.7695 32.24C17.3535 32.24 16.8975 32.224 16.4015 32.192C15.9215 32.176 15.4255 32.144 14.9135 32.096C14.4175 32.048 13.9615 31.976 13.5455 31.88V15.32C13.8495 15.272 14.1935 15.224 14.5775 15.176C14.9775 15.128 15.4015 15.088 15.8495 15.056C16.2975 15.024 16.7535 15 17.2175 14.984C17.6975 14.968 18.1695 14.96 18.6335 14.96C19.4175 14.96 20.1775 15.024 20.9135 15.152C21.6655 15.264 22.3295 15.472 22.9055 15.776C23.4975 16.08 23.9695 16.504 24.3215 17.048C24.6735 17.592 24.8495 18.28 24.8495 19.112ZM18.8495 29.528C19.2495 29.528 19.6335 29.48 20.0015 29.384C20.3855 29.288 20.7215 29.144 21.0095 28.952C21.2975 28.744 21.5295 28.488 21.7055 28.184C21.8815 27.88 21.9695 27.52 21.9695 27.104C21.9695 26.576 21.8655 26.16 21.6575 25.856C21.4495 25.552 21.1775 25.32 20.8415 25.16C20.5055 24.984 20.1295 24.872 19.7135 24.824C19.2975 24.776 18.8815 24.752 18.4655 24.752H16.7135V29.384C16.7935 29.416 16.9215 29.44 17.0975 29.456C17.2735 29.472 17.4575 29.488 17.6495 29.504C17.8575 29.504 18.0655 29.512 18.2735 29.528C18.4975 29.528 18.6895 29.528 18.8495 29.528ZM17.7695 22.256C17.9935 22.256 18.2495 22.248 18.5375 22.232C18.8415 22.216 19.0895 22.192 19.2815 22.16C19.8895 21.968 20.4095 21.68 20.8415 21.296C21.2895 20.912 21.5135 20.408 21.5135 19.784C21.5135 19.368 21.4335 19.024 21.2735 18.752C21.1135 18.48 20.8975 18.264 20.6255 18.104C20.3695 17.944 20.0735 17.832 19.7375 17.768C19.4015 17.704 19.0495 17.672 18.6815 17.672C18.2655 17.672 17.8815 17.68 17.5295 17.696C17.1775 17.712 16.9055 17.736 16.7135 17.768V22.256H17.7695ZM38.2532 30.968C37.7732 31.352 37.1172 31.68 36.2852 31.952C35.4692 32.208 34.5972 32.336 33.6692 32.336C31.7332 32.336 30.3172 31.776 29.4212 30.656C28.5252 29.52 28.0772 27.968 28.0772 26C28.0772 23.888 28.5812 22.304 29.5892 21.248C30.5972 20.192 32.0132 19.664 33.8372 19.664C34.4452 19.664 35.0372 19.744 35.6132 19.904C36.1892 20.064 36.7012 20.328 37.1492 20.696C37.5972 21.064 37.9572 21.56 38.2292 22.184C38.5012 22.808 38.6372 23.584 38.6372 24.512C38.6372 24.848 38.6132 25.208 38.5652 25.592C38.5332 25.976 38.4772 26.376 38.3972 26.792H31.1972C31.2452 27.8 31.5012 28.56 31.9652 29.072C32.4452 29.584 33.2132 29.84 34.2692 29.84C34.9252 29.84 35.5092 29.744 36.0212 29.552C36.5492 29.344 36.9492 29.136 37.2212 28.928L38.2532 30.968ZM33.7892 22.16C32.9732 22.16 32.3652 22.408 31.9652 22.904C31.5812 23.384 31.3492 24.032 31.2692 24.848H35.7332C35.7972 23.984 35.6612 23.32 35.3252 22.856C35.0052 22.392 34.4932 22.16 33.7892 22.16Z" fill="#121212"/>
<path d="M53.2167 19.112C53.2167 19.528 53.1607 19.944 53.0487 20.36C52.9527 20.776 52.7847 21.16 52.5447 21.512C52.3047 21.848 51.9927 22.152 51.6087 22.424C51.2247 22.68 50.7607 22.872 50.2167 23V23.144C50.6967 23.224 51.1527 23.36 51.5847 23.552C52.0167 23.744 52.3927 24.008 52.7127 24.344C53.0327 24.68 53.2807 25.088 53.4567 25.568C53.6487 26.048 53.7447 26.616 53.7447 27.272C53.7447 28.136 53.5607 28.888 53.1927 29.528C52.8247 30.152 52.3287 30.664 51.7047 31.064C51.0967 31.464 50.4007 31.76 49.6167 31.952C48.8327 32.144 48.0247 32.24 47.1927 32.24C46.9207 32.24 46.5687 32.24 46.1367 32.24C45.7207 32.24 45.2647 32.224 44.7687 32.192C44.2887 32.176 43.7927 32.144 43.2807 32.096C42.7847 32.048 42.3287 31.976 41.9127 31.88V15.32C42.2167 15.272 42.5607 15.224 42.9447 15.176C43.3447 15.128 43.7687 15.088 44.2167 15.056C44.6647 15.024 45.1207 15 45.5847 14.984C46.0647 14.968 46.5367 14.96 47.0007 14.96C47.7847 14.96 48.5447 15.024 49.2807 15.152C50.0327 15.264 50.6967 15.472 51.2727 15.776C51.8647 16.08 52.3367 16.504 52.6887 17.048C53.0407 17.592 53.2167 18.28 53.2167 19.112ZM47.2167 29.528C47.6167 29.528 48.0007 29.48 48.3687 29.384C48.7527 29.288 49.0887 29.144 49.3767 28.952C49.6647 28.744 49.8967 28.488 50.0727 28.184C50.2487 27.88 50.3367 27.52 50.3367 27.104C50.3367 26.576 50.2327 26.16 50.0247 25.856C49.8167 25.552 49.5447 25.32 49.2087 25.16C48.8727 24.984 48.4967 24.872 48.0807 24.824C47.6647 24.776 47.2487 24.752 46.8327 24.752H45.0807V29.384C45.1607 29.416 45.2887 29.44 45.4647 29.456C45.6407 29.472 45.8247 29.488 46.0167 29.504C46.2247 29.504 46.4327 29.512 46.6407 29.528C46.8647 29.528 47.0567 29.528 47.2167 29.528ZM46.1367 22.256C46.3607 22.256 46.6167 22.248 46.9047 22.232C47.2087 22.216 47.4567 22.192 47.6487 22.16C48.2567 21.968 48.7767 21.68 49.2087 21.296C49.6567 20.912 49.8807 20.408 49.8807 19.784C49.8807 19.368 49.8007 19.024 49.6407 18.752C49.4807 18.48 49.2647 18.264 48.9927 18.104C48.7367 17.944 48.4407 17.832 48.1047 17.768C47.7687 17.704 47.4167 17.672 47.0487 17.672C46.6327 17.672 46.2487 17.68 45.8967 17.696C45.5447 17.712 45.2727 17.736 45.0807 17.768V22.256H46.1367ZM66.6203 30.968C66.1403 31.352 65.4843 31.68 64.6523 31.952C63.8363 32.208 62.9643 32.336 62.0363 32.336C60.1003 32.336 58.6843 31.776 57.7883 30.656C56.8923 29.52 56.4443 27.968 56.4443 26C56.4443 23.888 56.9483 22.304 57.9563 21.248C58.9643 20.192 60.3803 19.664 62.2043 19.664C62.8123 19.664 63.4043 19.744 63.9803 19.904C64.5563 20.064 65.0683 20.328 65.5163 20.696C65.9643 21.064 66.3243 21.56 66.5963 22.184C66.8683 22.808 67.0043 23.584 67.0043 24.512C67.0043 24.848 66.9803 25.208 66.9323 25.592C66.9003 25.976 66.8443 26.376 66.7643 26.792H59.5643C59.6123 27.8 59.8683 28.56 60.3323 29.072C60.8123 29.584 61.5803 29.84 62.6363 29.84C63.2923 29.84 63.8763 29.744 64.3883 29.552C64.9163 29.344 65.3163 29.136 65.5883 28.928L66.6203 30.968ZM62.1563 22.16C61.3403 22.16 60.7323 22.408 60.3323 22.904C59.9483 23.384 59.7163 24.032 59.6363 24.848H64.1003C64.1643 23.984 64.0283 23.32 63.6923 22.856C63.3723 22.392 62.8603 22.16 62.1563 22.16ZM68.9598 20H70.6158V17.744L73.7358 16.856V20H76.6638V22.64H73.7358V27.248C73.7358 28.08 73.8158 28.68 73.9758 29.048C74.1518 29.4 74.4718 29.576 74.9358 29.576C75.2558 29.576 75.5278 29.544 75.7518 29.48C75.9918 29.416 76.2558 29.32 76.5438 29.192L77.0958 31.592C76.6638 31.8 76.1598 31.976 75.5838 32.12C75.0078 32.264 74.4238 32.336 73.8318 32.336C72.7278 32.336 71.9118 32.056 71.3838 31.496C70.8718 30.92 70.6158 29.984 70.6158 28.688V22.64H68.9598V20ZM78.163 20H79.819V17.744L82.939 16.856V20H85.867V22.64H82.939V27.248C82.939 28.08 83.019 28.68 83.179 29.048C83.355 29.4 83.675 29.576 84.139 29.576C84.459 29.576 84.731 29.544 84.955 29.48C85.195 29.416 85.459 29.32 85.747 29.192L86.299 31.592C85.867 31.8 85.363 31.976 84.787 32.12C84.211 32.264 83.627 32.336 83.035 32.336C81.931 32.336 81.115 32.056 80.587 31.496C80.075 30.92 79.819 29.984 79.819 28.688V22.64H78.163V20ZM98.261 30.968C97.781 31.352 97.125 31.68 96.293 31.952C95.477 32.208 94.605 32.336 93.677 32.336C91.741 32.336 90.325 31.776 89.429 30.656C88.533 29.52 88.085 27.968 88.085 26C88.085 23.888 88.589 22.304 89.597 21.248C90.605 20.192 92.021 19.664 93.845 19.664C94.453 19.664 95.045 19.744 95.621 19.904C96.197 20.064 96.709 20.328 97.157 20.696C97.605 21.064 97.965 21.56 98.237 22.184C98.509 22.808 98.645 23.584 98.645 24.512C98.645 24.848 98.621 25.208 98.573 25.592C98.541 25.976 98.485 26.376 98.405 26.792H91.205C91.253 27.8 91.509 28.56 91.973 29.072C92.453 29.584 93.221 29.84 94.277 29.84C94.933 29.84 95.517 29.744 96.029 29.552C96.557 29.344 96.957 29.136 97.229 28.928L98.261 30.968ZM93.797 22.16C92.981 22.16 92.373 22.408 91.973 22.904C91.589 23.384 91.357 24.032 91.277 24.848H95.741C95.805 23.984 95.669 23.32 95.333 22.856C95.013 22.392 94.501 22.16 93.797 22.16ZM108.472 22.928C107.976 22.752 107.528 22.664 107.128 22.664C106.568 22.664 106.096 22.816 105.712 23.12C105.344 23.408 105.096 23.784 104.968 24.248V32H101.848V20H104.272L104.632 21.584H104.728C105 20.992 105.368 20.536 105.832 20.216C106.296 19.896 106.84 19.736 107.464 19.736C107.88 19.736 108.352 19.824 108.88 20L108.472 22.928Z" fill="#F7DF1E"/>
</svg>
